<?xml version="1.0" encoding="utf-8"?>
<!-- Generator: Adobe Illustrator 23.0.1, SVG Export Plug-In . SVG Version: 6.00 Build 0)  -->
<svg version="1.1" id="Layer_1" xmlns="http://www.w3.org/2000/svg" xmlns:xlink="http://www.w3.org/1999/xlink" x="0px" y="0px"
	 viewBox="0 0 302.5 53" style="enable-background:new 0 0 302.5 53;" xml:space="preserve">
<style type="text/css">
	.st0{fill:#FFFFFF;}
</style>
<g>
	<g id="XMLID_86_">
		<polygon id="XMLID_169_" class="st0" points="35.79,16.4 34.12,16.4 27.52,32.98 20.98,16.4 19.31,16.4 27.52,36.51 		"/>
		<rect id="XMLID_110_" x="41.04" y="16.4" class="st0" width="1.55" height="20.21"/>
		<path id="XMLID_108_" class="st0" d="M50.91,35.75c0.97,0.57,2.12,0.86,3.43,0.86c1.9,0,3.41-0.49,4.49-1.45
			c1.09-0.97,1.61-2.26,1.61-3.96c0-2.16-1.9-4.24-5.65-6.18l-0.14-0.06c-1.38-0.72-2.29-1.34-2.78-1.91
			c-0.51-0.59-0.76-1.32-0.76-2.18c0-0.96,0.34-1.73,1.02-2.3c0.66-0.56,1.56-0.84,2.68-0.84c0.8,0,1.52,0.16,2.16,0.49
			c0.5,0.25,0.91,0.58,1.23,0.99l0.99-0.89c-0.47-0.61-1.04-1.07-1.68-1.39c-0.74-0.37-1.61-0.55-2.59-0.55
			c-1.62,0-2.94,0.43-3.91,1.27c-0.97,0.85-1.45,1.93-1.45,3.32c0,1.18,0.34,2.17,1,2.93c0.69,0.79,1.95,1.62,3.75,2.48
			c1.6,0.76,2.77,1.5,3.47,2.22c0.73,0.75,1.11,1.65,1.11,2.67c0,1.25-0.41,2.23-1.21,2.93c-0.79,0.69-1.89,1.04-3.25,1.04
			c-1.09,0-2.06-0.26-2.9-0.78c-0.69-0.43-1.22-0.99-1.58-1.68l-1.04,0.85C49.36,34.53,50.03,35.23,50.91,35.75z"/>
		<rect id="XMLID_106_" x="66.99" y="16.4" class="st0" width="1.55" height="20.21"/>
		<polygon id="XMLID_104_" class="st0" points="85.06,16.4 73.6,16.4 73.6,17.71 78.55,17.71 78.55,36.6 80.09,36.6 80.09,17.71 
			85.06,17.71 		"/>
		<path id="XMLID_101_" class="st0" d="M108.19,36.6h-5.25v-8.09h-7.26v8.09h-5.26V16.4h5.26v7.83h7.26V16.4h5.25V36.6z"/>
		<path id="XMLID_98_" class="st0" d="M133.67,26.53c0,2.97-1.05,5.47-3.15,7.48c-2.1,2.02-4.7,3.02-7.79,3.02
			c-3.11,0-5.71-1.01-7.81-3.02c-2.1-2.02-3.15-4.51-3.15-7.48c0-2.97,1.05-5.47,3.16-7.5c2.11-2.04,4.7-3.06,7.79-3.06
			c3.1,0,5.69,1.02,7.79,3.05C132.62,21.05,133.67,23.55,133.67,26.53z M128.2,26.53c0-1.55-0.52-2.85-1.55-3.9
			c-1.03-1.05-2.34-1.57-3.92-1.57c-1.61,0-2.93,0.52-3.96,1.55c-1.03,1.03-1.54,2.34-1.54,3.92c0,1.55,0.52,2.84,1.55,3.87
			c1.03,1.03,2.35,1.54,3.94,1.54c1.59,0,2.9-0.52,3.93-1.55C127.69,29.36,128.2,28.07,128.2,26.53z"/>
		<path id="XMLID_96_" class="st0" d="M154.62,27.27c0,3.75-0.65,6.32-1.94,7.69c-1.3,1.38-3.54,2.07-6.73,2.07
			c-3.2,0-5.45-0.69-6.75-2.07c-1.3-1.38-1.94-3.94-1.94-7.69V16.4h5.26v10.93c0,1.99,0.25,3.33,0.75,4.02
			c0.5,0.69,1.39,1.04,2.68,1.04c1.28,0,2.17-0.35,2.68-1.04c0.5-0.69,0.75-2.04,0.75-4.02V16.4h5.25V27.27z"/>
		<path id="XMLID_94_" class="st0" d="M173.32,30.23c0,2.07-0.72,3.72-2.15,4.95c-1.43,1.24-3.34,1.85-5.72,1.85
			c-1.4,0-2.66-0.23-3.78-0.7c-1.13-0.47-2.24-1.22-3.34-2.26l2.46-3.79c0.74,0.84,1.5,1.46,2.28,1.86c0.78,0.4,1.61,0.6,2.5,0.6
			c0.73,0,1.33-0.19,1.79-0.58c0.46-0.38,0.69-0.88,0.69-1.49c0-0.66-0.21-1.18-0.64-1.55c-0.42-0.37-1.34-0.74-2.74-1.09
			c-1.88-0.49-3.25-1.2-4.13-2.14c-0.88-0.94-1.31-2.17-1.31-3.68c0-1.87,0.64-3.37,1.93-4.52c1.29-1.15,2.98-1.72,5.07-1.72
			c1.13,0,2.18,0.15,3.17,0.44c0.99,0.3,1.91,0.75,2.79,1.35l-1.73,4.06c-0.59-0.51-1.22-0.89-1.88-1.16
			c-0.66-0.27-1.31-0.4-1.97-0.4c-0.7,0-1.25,0.14-1.67,0.41c-0.41,0.27-0.62,0.64-0.62,1.11c0,0.9,0.99,1.61,2.97,2.12
			c0.13,0.03,0.23,0.06,0.3,0.08c2.03,0.54,3.49,1.3,4.38,2.29C172.87,27.25,173.32,28.57,173.32,30.23z"/>
		<path id="XMLID_92_" class="st0" d="M189.86,21.03h-4.1V36.6h-5.26V21.03h-4.12V16.4h13.48V21.03z"/>
		<path id="XMLID_89_" class="st0" d="M214.36,26.53c0,2.97-1.05,5.47-3.15,7.48c-2.1,2.02-4.7,3.02-7.79,3.02
			c-3.11,0-5.71-1.01-7.81-3.02c-2.1-2.02-3.15-4.51-3.15-7.48c0-2.97,1.05-5.47,3.16-7.5c2.11-2.04,4.7-3.06,7.79-3.06
			c3.1,0,5.69,1.02,7.79,3.05C213.31,21.05,214.36,23.55,214.36,26.53z M208.89,26.53c0-1.55-0.52-2.85-1.55-3.9
			s-2.34-1.57-3.92-1.57c-1.61,0-2.93,0.52-3.96,1.55c-1.03,1.03-1.54,2.34-1.54,3.92c0,1.55,0.52,2.84,1.55,3.87
			c1.03,1.03,2.35,1.54,3.95,1.54c1.59,0,2.9-0.52,3.93-1.55C208.38,29.36,208.89,28.07,208.89,26.53z"/>
		<path id="XMLID_87_" class="st0" d="M237.81,36.6h-5.25l-9.36-12.54V36.6h-5.26V16.4h5.29l9.33,12.56V16.4h5.25V36.6z"/>
	</g>
	<g>
		<path class="st0" d="M258.46,31.18H247.2l-2.24,5.42h-1.12l8.42-20.2h1.15l8.42,20.2h-1.12L258.46,31.18z M247.56,30.27h10.54
			l-5.27-12.75L247.56,30.27z"/>
		<path class="st0" d="M270.94,27.88h-4.85v8.72h-0.97V16.4h6.97c3.27,0,5.97,2.03,5.97,5.72c0,3.7-2.7,5.76-5.97,5.76l6.24,8.72
			h-1.24L270.94,27.88z M272.09,17.31h-6v9.66h6c2.97,0,4.91-2.06,4.91-4.85C277,19.34,275.06,17.31,272.09,17.31z"/>
	</g>
	<g>
		<path class="st0" d="M280,16.62h-0.63V16.4h1.52v0.22h-0.64v1.78H280V16.62z"/>
		<path class="st0" d="M282.94,16.73l-0.68,1.67h-0.1l-0.68-1.67v1.67h-0.25V16.4h0.36l0.62,1.53l0.63-1.53h0.36v2.01h-0.25V16.73z"
			/>
	</g>
</g>
</svg>
