<?xml version="1.0" encoding="utf-8"?>
<!-- Generator: Adobe Illustrator 23.0.1, SVG Export Plug-In . SVG Version: 6.00 Build 0)  -->
<svg version="1.1" id="Layer_1" xmlns="http://www.w3.org/2000/svg" xmlns:xlink="http://www.w3.org/1999/xlink" x="0px" y="0px"
	 viewBox="0 0 360 360" style="enable-background:new 0 0 360 360;" xml:space="preserve">
<style type="text/css">
	.st0{fill:#231F20;}
</style>
<g>
	<g>
		<path id="XMLID_101_" class="st0" d="M121.82,137.07h-21.3v-32.83H71.02v32.83H49.67V55.04h21.36v31.77h29.49V55.04h21.3V137.07z"
			/>
		<path id="XMLID_98_" class="st0" d="M225.27,96.16c0,12.08-4.26,22.21-12.78,30.39c-8.52,8.18-19.07,12.27-31.64,12.27
			c-12.61,0-23.17-4.09-31.69-12.27c-8.52-8.18-12.78-18.31-12.78-30.39c0-12.04,4.28-22.2,12.83-30.47
			c8.55-8.27,19.1-12.41,31.64-12.41c12.57,0,23.12,4.13,31.64,12.38C221.01,73.91,225.27,84.08,225.27,96.16z M203.06,96.16
			c0-6.3-2.1-11.58-6.29-15.83c-4.2-4.25-9.5-6.38-15.91-6.38c-6.55,0-11.91,2.1-16.07,6.3c-4.16,4.19-6.24,9.5-6.24,15.91
			c0,6.3,2.1,11.55,6.3,15.73c4.2,4.18,9.54,6.27,16.02,6.27c6.45,0,11.76-2.1,15.94-6.3C200.97,107.66,203.06,102.43,203.06,96.16z
			"/>
		<path id="XMLID_96_" class="st0" d="M310.33,99.19c0,15.23-2.63,25.64-7.89,31.24c-5.26,5.6-14.37,8.39-27.33,8.39
			c-13,0-22.13-2.8-27.39-8.39c-5.26-5.6-7.89-16.01-7.89-31.24V55.04h21.36V99.4c0,8.08,1.01,13.52,3.03,16.34
			c2.02,2.81,5.65,4.22,10.89,4.22c5.21,0,8.83-1.41,10.86-4.22c2.04-2.82,3.06-8.26,3.06-16.34V55.04h21.3V99.19z"/>
	</g>
	<g>
		<g>
			<path class="st0" d="M158.13,268.46H78.62L62.8,306.72h-7.91l59.42-142.56h8.12l59.42,142.56h-7.91L158.13,268.46z M81.18,262.05
				h74.38l-37.19-89.99L81.18,262.05z"/>
			<path class="st0" d="M236.31,245.16h-34.2v61.56h-6.84V164.15h49.16c23.08,0,42.11,14.32,42.11,40.4
				c0,26.08-19.02,40.61-42.11,40.61l44.03,61.56h-8.76L236.31,245.16z M244.44,170.56h-42.32v68.18h42.32
				c20.95,0,34.63-14.53,34.63-34.2C279.06,184.89,265.38,170.56,244.44,170.56z"/>
		</g>
		<g>
			<path class="st0" d="M285.4,166.29h-3.93v-1.38h9.43v1.38h-3.95v11.05h-1.55V166.29z"/>
			<path class="st0" d="M303.56,167l-4.23,10.34h-0.63L294.49,167v10.34h-1.55v-12.43h2.22l3.86,9.46l3.87-9.46h2.22v12.43h-1.55
				V167z"/>
		</g>
	</g>
</g>
</svg>
